<svg width="71" height="37" viewBox="0 0 71 37" fill="none" xmlns="http://www.w3.org/2000/svg">
<path d="M0.000122079 0.659302L22.145 0.659302L20.6039 7H18.2967C17.956 6.82212 17.6425 6.57143 17.3071 6.2186C16.7492 5.63169 16.4455 5.48933 15.7167 5.45693C14.7252 5.41365 7.23023 5.79387 5.5921 5.96909C4.76102 6.05666 4.56948 6.10837 4.67025 6.21437C4.74735 6.29548 6.77258 6.35043 10.4947 6.3803C12.4843 6.38516 14.1332 6.42354 14.1687 6.46087C14.2697 6.5671 14.2013 6.97588 14.0694 7.01464C14.0036 7.03413 12.6408 7.09393 11.0393 7.15544C6.77235 7.31202 4.59678 7.45301 4.59589 7.59129C4.58892 7.74839 6.95448 7.83202 11.3518 7.83876C12.8274 7.83452 14.076 7.882 14.1235 7.932C14.2195 8.03299 14.2211 8.24145 14.142 8.36457C13.1568 8.42861 12.2233 8.48938 11.4072 8.5437C7.0465 8.60788 4.58859 8.72527 4.58764 8.87378C4.58667 9.02458 6.52777 9.13025 11.0262 9.23022C12.6213 9.26295 13.9892 9.30981 14.0548 9.32791C14.192 9.35825 14.2491 9.77287 14.1349 9.89292C14.0928 9.9373 13.7459 9.96483 13.3457 9.96141C12.1149 9.95788 6.18668 10.1131 5.39193 10.1753C4.97953 10.2096 4.63843 10.2688 4.63219 10.3127C4.63106 10.4886 7.1573 10.6529 11.8945 10.7888C12.0615 10.7933 12.2224 10.7977 12.3775 10.802C15.5638 10.8893 16.2832 10.909 16.7733 10.566C16.9163 10.466 17.0397 10.3351 17.1991 10.166C17.2258 10.1378 17.2535 10.1084 17.2825 10.0779C17.5291 9.81848 17.7636 9.61297 18.0048 9.44991H20.0084L18.5213 15.5684L0.00012207 15.5684L0.000122079 0.659302Z" fill="black"/>
<path d="M0.00012207 0.659424H5.31489V35.2974L0.00012207 37.0003V0.659424Z" fill="black"/>
<path d="M14.96 33.24C12.912 33.24 11.408 32.728 10.448 31.704C9.504 30.68 9.032 29.216 9.032 27.312C9.032 25.408 9.512 23.944 10.472 22.92C11.432 21.896 12.928 21.384 14.96 21.384C17.008 21.384 18.512 21.896 19.472 22.92C20.432 23.944 20.912 25.408 20.912 27.312C20.912 29.216 20.432 30.68 19.472 31.704C18.528 32.728 17.024 33.24 14.96 33.24ZM14.96 31.032C16.16 31.032 17.008 30.744 17.504 30.168C18.016 29.576 18.272 28.624 18.272 27.312C18.272 26 18.016 25.056 17.504 24.48C17.008 23.904 16.16 23.616 14.96 23.616C13.776 23.616 12.928 23.904 12.416 24.48C11.92 25.056 11.672 26 11.672 27.312C11.672 28.624 11.92 29.576 12.416 30.168C12.928 30.744 13.776 31.032 14.96 31.032ZM28.9053 33.24C26.8573 33.24 25.3533 32.728 24.3933 31.704C23.4493 30.68 22.9773 29.216 22.9773 27.312C22.9773 25.408 23.4573 23.944 24.4173 22.92C25.3773 21.896 26.8733 21.384 28.9053 21.384C30.9533 21.384 32.4573 21.896 33.4173 22.92C34.3773 23.944 34.8573 25.408 34.8573 27.312C34.8573 29.216 34.3773 30.68 33.4173 31.704C32.4733 32.728 30.9693 33.24 28.9053 33.24ZM28.9053 31.032C30.1053 31.032 30.9533 30.744 31.4493 30.168C31.9613 29.576 32.2173 28.624 32.2173 27.312C32.2173 26 31.9613 25.056 31.4493 24.48C30.9533 23.904 30.1053 23.616 28.9053 23.616C27.7213 23.616 26.8733 23.904 26.3613 24.48C25.8653 25.056 25.6173 26 25.6173 27.312C25.6173 28.624 25.8653 29.576 26.3613 30.168C26.8733 30.744 27.7213 31.032 28.9053 31.032ZM42.1066 33.24C41.0826 33.24 40.1786 33.064 39.3946 32.712C38.6106 32.36 38.0026 31.776 37.5706 30.96C37.1386 30.144 36.9226 29.048 36.9226 27.672C36.9226 26.312 37.1546 25.168 37.6186 24.24C38.0826 23.296 38.7226 22.584 39.5386 22.104C40.3706 21.624 41.3066 21.384 42.3466 21.384C43.0346 21.384 43.6426 21.464 44.1706 21.624C44.7146 21.784 45.2346 22.032 45.7306 22.368V16.824H48.3466V33H46.1146L45.9466 31.872C45.4346 32.336 44.8746 32.68 44.2666 32.904C43.6586 33.128 42.9386 33.24 42.1066 33.24ZM42.8026 31.272C43.9706 31.272 44.9466 30.872 45.7306 30.072V24.384C44.9786 23.712 44.0346 23.376 42.8986 23.376C41.7946 23.376 40.9626 23.744 40.4026 24.48C39.8426 25.216 39.5626 26.288 39.5626 27.696C39.5626 29.056 39.8186 29.992 40.3306 30.504C40.8586 31.016 41.6826 31.272 42.8026 31.272Z" fill="black"/>
<path d="M49.5481 36.9999L57.8281 25.4439L49.7281 13.8159H54.2641L60.1681 22.4199L66.0721 13.8159H70.6441L62.5081 25.4439L70.7881 36.9999H66.1801L60.1681 28.5039L54.1561 36.9999H49.5481Z" fill="black"/>
<path d="M49.5481 36.9999L57.8281 25.4439L49.7281 13.8159H54.2641L60.1681 22.4199L66.0721 13.8159H70.6441L62.5081 25.4439L70.7881 36.9999H66.1801L60.1681 28.5039L54.1561 36.9999H49.5481Z" fill="black"/>
</svg>
